<svg xmlns="http://www.w3.org/2000/svg" xmlns:xlink="http://www.w3.org/1999/xlink" version="1.1" width="1000" height="1000" viewBox="0 0 1000 1000" xml:space="preserve">
<desc>Created with Fabric.js 3.5.0</desc>
<defs>
</defs>
<rect x="0" y="0" width="100%" height="100%" fill="#ffffff"/>
<g transform="matrix(4.4455 0 0 4.5174 500.0056 492.3376)" id="24550">
<g style="" vector-effect="non-scaling-stroke">
		<g transform="matrix(8 0 0 8 0 0)">
<rect style="stroke: none; stroke-width: 1; stroke-dasharray: none; stroke-linecap: butt; stroke-dashoffset: 0; stroke-linejoin: miter; stroke-miterlimit: 4; is-custom-font: none; font-file-url: none; fill: rgb(245,222,25); fill-rule: nonzero; opacity: 1;" x="-14" y="-14" rx="0" ry="0" width="28" height="28"/>
</g>
		<g transform="matrix(8 0 0 8 20.8 42.0645)">
<path style="stroke: none; stroke-width: 1; stroke-dasharray: none; stroke-linecap: butt; stroke-dashoffset: 0; stroke-linejoin: miter; stroke-miterlimit: 4; is-custom-font: none; font-file-url: none; fill: rgb(0,0,0); fill-rule: nonzero; opacity: 1;" transform=" translate(-18.6, -21.2581)" d="M 20.809 23.875 a 2.866 2.866 0 0 0 2.6 1.6 c 1.09 0 1.787 -0.545 1.787 -1.3 c 0 -0.9 -0.716 -1.222 -1.916 -1.747 l -0.658 -0.282 c -1.9 -0.809 -3.16 -1.822 -3.16 -3.964 c 0 -1.973 1.5 -3.476 3.853 -3.476 a 3.889 3.889 0 0 1 3.742 2.107 L 25 18.128 A 1.789 1.789 0 0 0 23.311 17 a 1.145 1.145 0 0 0 -1.259 1.128 c 0 0.789 0.489 1.109 1.618 1.6 l 0.658 0.282 c 2.236 0.959 3.5 1.936 3.5 4.133 c 0 2.369 -1.861 3.667 -4.36 3.667 a 5.055 5.055 0 0 1 -4.795 -2.691 Z m -9.295 0.228 c 0.413 0.733 0.789 1.353 1.693 1.353 c 0.864 0 1.41 -0.338 1.41 -1.653 V 14.856 h 2.631 v 8.982 c 0 2.724 -1.6 3.964 -3.929 3.964 a 4.085 4.085 0 0 1 -3.947 -2.4 Z" stroke-linecap="round"/>
</g>
</g>
</g>
<g transform="matrix(4.4455 0 0 4.5174 520.0056 512.3376)" id="337309">
<g style="" vector-effect="non-scaling-stroke">
		<g transform="matrix(8 0 0 8 0 0)">
<rect style="stroke: none; stroke-width: 1; stroke-dasharray: none; stroke-linecap: butt; stroke-dashoffset: 0; stroke-linejoin: miter; stroke-miterlimit: 4; is-custom-font: none; font-file-url: none; fill: rgb(245,222,25); fill-rule: nonzero; opacity: 1;" x="-14" y="-14" rx="0" ry="0" width="28" height="28"/>
</g>
		<g transform="matrix(8 0 0 8 20.8 42.0645)">
<path style="stroke: none; stroke-width: 1; stroke-dasharray: none; stroke-linecap: butt; stroke-dashoffset: 0; stroke-linejoin: miter; stroke-miterlimit: 4; is-custom-font: none; font-file-url: none; fill: rgb(0,0,0); fill-rule: nonzero; opacity: 1;" transform=" translate(-18.6, -21.2581)" d="M 20.809 23.875 a 2.866 2.866 0 0 0 2.6 1.6 c 1.09 0 1.787 -0.545 1.787 -1.3 c 0 -0.9 -0.716 -1.222 -1.916 -1.747 l -0.658 -0.282 c -1.9 -0.809 -3.16 -1.822 -3.16 -3.964 c 0 -1.973 1.5 -3.476 3.853 -3.476 a 3.889 3.889 0 0 1 3.742 2.107 L 25 18.128 A 1.789 1.789 0 0 0 23.311 17 a 1.145 1.145 0 0 0 -1.259 1.128 c 0 0.789 0.489 1.109 1.618 1.6 l 0.658 0.282 c 2.236 0.959 3.5 1.936 3.5 4.133 c 0 2.369 -1.861 3.667 -4.36 3.667 a 5.055 5.055 0 0 1 -4.795 -2.691 Z m -9.295 0.228 c 0.413 0.733 0.789 1.353 1.693 1.353 c 0.864 0 1.41 -0.338 1.41 -1.653 V 14.856 h 2.631 v 8.982 c 0 2.724 -1.6 3.964 -3.929 3.964 a 4.085 4.085 0 0 1 -3.947 -2.4 Z" stroke-linecap="round"/>
</g>
</g>
</g>
</svg>